# xmcd
#
# Track frame offsets:
#	150
#	10307
#	25447
#	38279
#	52006
#	64311
#	75556
#	88741
#	102823
#	117414
#	133132
#
# Disc length: 1932 seconds
#
# Revision: 0
# Processed by: cddbd v1.5.2PL0 Copyright (c) Steve Scherf et al.
# Submitted via: EZCDAudioConverter 1.3.4.1
#
DISCID=8d078a0b
DTITLE=Various Artist -  Leadbelly The Rough Guide To Blues Legends BonusCD  Folk and B
DTITLE=lues Legends Reborn And Remastered
DYEAR=2010
DGENRE=
TTITLE0=Woody Guthrie - Ramblin' Round
TTITLE1=Josh White - TB Blues
TTITLE2=Sonny Terry - Shake Down
TTITLE3=Big Bill Broonzy - Key To The Highway
TTITLE4=Blind Boy Fuller - I Want Some Of Your Pie
TTITLE5=Tampa Red - It Hurts Me Too
TTITLE6=Washboard Sam - Diggin' My Potatoes
TTITLE7=Bumble Bee Slim - Bricks In My Pillow
TTITLE8=Arthur "Big Boy" Crudup - I'm Gonna Dig Myself A Hole
TTITLE9=Jesse Fuller - San Francisco Bay Blues
TTITLE10=Brownie McGhee - Black, Brown And White
EXTD=
EXTT0=
EXTT1=
EXTT2=
EXTT3=
EXTT4=
EXTT5=
EXTT6=
EXTT7=
EXTT8=
EXTT9=
EXTT10=
PLAYORDER=
